<svg width="10" height="10" viewBox="0 0 10 10" fill="none" xmlns="http://www.w3.org/2000/svg">
<g filter="url(#filter0_d_33_157)">
<path d="M8.16667 6.33333H7V3.66667H8.16667C9.1775 3.66667 10 2.84417 10 1.83333C10 0.8225 9.1775 0 8.16667 0C7.15583 0 6.33333 0.8225 6.33333 1.83333V3H3.66667V1.83333C3.66667 0.8225 2.84417 0 1.83333 0C0.8225 0 0 0.8225 0 1.83333C0 2.84417 0.8225 3.66667 1.83333 3.66667H3V6.33333H1.83333C0.8225 6.33333 0 7.15583 0 8.16667C0 9.1775 0.8225 10 1.83333 10C2.84417 10 3.66667 9.1775 3.66667 8.16667V7H6.33333V8.16667C6.33333 9.1775 7.15583 10 8.16667 10C9.1775 10 10 9.1775 10 8.16667C10 7.15583 9.1775 6.33333 8.16667 6.33333ZM7 1.83333C7 1.19017 7.52333 0.666667 8.16667 0.666667C8.81 0.666667 9.33333 1.19017 9.33333 1.83333C9.33333 2.4765 8.81 3 8.16667 3H7V1.83333ZM1.83333 3C1.19 3 0.666667 2.4765 0.666667 1.83333C0.666667 1.19017 1.19 0.666667 1.83333 0.666667C2.47667 0.666667 3 1.19017 3 1.83333V3H1.83333ZM3 8.16667C3 8.80983 2.47667 9.33333 1.83333 9.33333C1.19 9.33333 0.666667 8.80983 0.666667 8.16667C0.666667 7.5235 1.19 7 1.83333 7H3V8.16667ZM3.66667 6.33333V3.66667H6.33333V6.33333H3.66667ZM8.16667 9.33333C7.52333 9.33333 7 8.80983 7 8.16667V7H8.16667C8.81 7 9.33333 7.5235 9.33333 8.16667C9.33333 8.80983 8.81 9.33333 8.16667 9.33333Z" fill="white"/>
</g>
<defs>
<filter id="filter0_d_33_157" x="-4" y="0" width="18" height="18" filterUnits="userSpaceOnUse" color-interpolation-filters="sRGB">
<feFlood flood-opacity="0" result="BackgroundImageFix"/>
<feColorMatrix in="SourceAlpha" type="matrix" values="0 0 0 0 0 0 0 0 0 0 0 0 0 0 0 0 0 0 127 0" result="hardAlpha"/>
<feOffset dy="4"/>
<feGaussianBlur stdDeviation="2"/>
<feComposite in2="hardAlpha" operator="out"/>
<feColorMatrix type="matrix" values="0 0 0 0 0 0 0 0 0 0 0 0 0 0 0 0 0 0 0.25 0"/>
<feBlend mode="normal" in2="BackgroundImageFix" result="effect1_dropShadow_33_157"/>
<feBlend mode="normal" in="SourceGraphic" in2="effect1_dropShadow_33_157" result="shape"/>
</filter>
</defs>
</svg>
